<?xml version="1.0" encoding="UTF-8" standalone="no"?>
<!-- Created with Inkscape (http://www.inkscape.org/) -->

<svg
   width="49.876278mm"
   height="92.57119mm"
   viewBox="0 0 49.876278 92.57119"
   version="1.1"
   id="svg1"
   xml:space="preserve"
   inkscape:version="1.3.2 (091e20ef0f, 2023-11-25, custom)"
   sodipodi:docname="contra_cov.svg"
   xmlns:inkscape="http://www.inkscape.org/namespaces/inkscape"
   xmlns:sodipodi="http://sodipodi.sourceforge.net/DTD/sodipodi-0.dtd"
   xmlns="http://www.w3.org/2000/svg"
   xmlns:svg="http://www.w3.org/2000/svg"><sodipodi:namedview
     id="namedview1"
     pagecolor="#505050"
     bordercolor="#eeeeee"
     borderopacity="1"
     inkscape:showpageshadow="0"
     inkscape:pageopacity="0"
     inkscape:pagecheckerboard="0"
     inkscape:deskcolor="#505050"
     inkscape:document-units="mm"
     showguides="true"
     inkscape:zoom="0.9890377"
     inkscape:cx="146.60715"
     inkscape:cy="138.01294"
     inkscape:window-width="1276"
     inkscape:window-height="1383"
     inkscape:window-x="3200"
     inkscape:window-y="0"
     inkscape:window-maximized="1"
     inkscape:current-layer="layer1" /><defs
     id="defs1" /><g
     inkscape:label="Layer 1"
     inkscape:groupmode="layer"
     id="layer1"
     transform="translate(-31.636369,-33.725816)"><g
       style="opacity:1;fill:#aa4400;fill-rule:nonzero;stroke:none;stroke-width:0;stroke-linecap:butt;stroke-linejoin:miter;stroke-miterlimit:10;stroke-dasharray:none"
       transform="matrix(-0.74347917,0,0,-0.74347917,133.9339,143.1776)"
       id="g2">
	
	
<g
   id="g3"
   transform="translate(7.3470825,30.637194)"
   style="fill:#aa4400"><path
     d="m 88.08393,72.026181 16.19299,-15.342 c 0.66,-0.625 1.748,-0.157 1.748,0.752 v 7.873 c 0,0.572 0.464,1.036 1.036,1.036 h 22.149 c 0.572,0 1.036,0.464 1.036,1.036 v 10.795 c 0,0.572 -0.464,1.036 -1.036,1.036 h -22.149 c -0.572,0 -1.036,0.464 -1.036,1.036 v 7.873 c 0,0.909 -1.088,1.377 -1.748,0.752 l -16.19299,-15.343 c -0.431,-0.409 -0.431,-1.095 0,-1.504 z"
     style="opacity:1;fill:#ff00ff;fill-rule:nonzero;stroke:none;stroke-width:1;stroke-linecap:butt;stroke-linejoin:miter;stroke-miterlimit:10;stroke-dasharray:none"
     stroke-linecap="round"
     id="path1" /><path
     d="m 105.32294,99.445826 -16.192997,-15.342 c -0.66,-0.625 -1.748,-0.157 -1.748,0.752 v 7.873 c 0,0.572 -0.464,1.036 -1.036001,1.036 H 64.196949 c -0.572,0 -1.036,0.464 -1.036,1.036 v 10.795004 c 0,0.572 0.464,1.036 1.036,1.036 h 22.148993 c 0.572001,0 1.036001,0.464 1.036001,1.036 v 7.873 c 0,0.909 1.088,1.377 1.748,0.752 l 16.192997,-15.343 c 0.431,-0.409 0.431,-1.095004 0,-1.504004 z"
     style="opacity:1;fill:#ff00ff;fill-rule:nonzero;stroke:none;stroke-width:1;stroke-linecap:butt;stroke-linejoin:miter;stroke-miterlimit:10;stroke-dasharray:none"
     stroke-linecap="round"
     id="path8" /></g></g><g
       style="opacity:1;fill:#002fa7;fill-opacity:1;fill-rule:nonzero;stroke:none;stroke-width:0;stroke-linecap:butt;stroke-linejoin:miter;stroke-miterlimit:10;stroke-dasharray:none"
       transform="matrix(0.74347917,0,0,0.74347917,18.603348,86.974437)"
       id="g7">
	
	
<g
   id="g6"
   transform="translate(36.392894,-7.1741458)"
   style="fill:#ff00ff;fill-opacity:1"><path
     d="M -18.238292,17.668758 -2.0452922,2.3267584 c 0.66,-0.625 1.74800003,-0.157 1.74800003,0.752 v 7.8729996 c 0,0.572 0.464,1.036 1.036,1.036 H 22.887708 c 0.572,0 1.036,0.464 1.036,1.036 v 10.795 c 0,0.572 -0.464,1.036 -1.036,1.036 H 0.73870783 c -0.572,0 -1.036,0.464 -1.036,1.036 v 7.873 c 0,0.909 -1.08800003,1.377 -1.74800003,0.752 l -16.1929998,-15.343 c -0.431,-0.409 -0.431,-1.095 0,-1.504 z"
     style="opacity:1;fill:#ff00ff;fill-opacity:1;fill-rule:nonzero;stroke:none;stroke-width:1;stroke-linecap:butt;stroke-linejoin:miter;stroke-miterlimit:10;stroke-dasharray:none"
     stroke-linecap="round"
     id="path5" /><path
     d="m 5.194536,42.931444 16.193001,-15.342 c 0.66,-0.625 1.748,-0.157 1.748,0.752 v 7.873 c 0,0.572 0.464,1.036 1.036,1.036 h 22.149 c 0.572,0 1.036,0.464 1.036,1.036 v 10.795 c 0,0.572 -0.464,1.036 -1.036,1.036 h -22.149 c -0.572,0 -1.036,0.464 -1.036,1.036 v 7.873 c 0,0.909 -1.088,1.377 -1.748,0.752 l -16.193001,-15.343 c -0.431,-0.409 -0.431,-1.095 0,-1.504 z"
     style="opacity:1;fill:#ff00ff;fill-opacity:1;fill-rule:nonzero;stroke:none;stroke-width:1;stroke-linecap:butt;stroke-linejoin:miter;stroke-miterlimit:10;stroke-dasharray:none"
     stroke-linecap="round"
     id="path7" /></g></g></g></svg>
